<svg xmlns="http://www.w3.org/2000/svg" width="36" height="36" viewBox="0 0 36 36">
  <g id="github-icon" transform="translate(-1197 -29)">
    <path id="Path_36" data-name="Path 36" d="M18,0A18,18,0,1,1,0,18,18,18,0,0,1,18,0Z" transform="translate(1197 29)" fill="#fff" opacity="0.7"/>
    <path id="Icon_feather-github" data-name="Icon feather-github" d="M9.013,16.945C4.718,18.234,4.718,14.8,3,14.368m12.027,5.154V16.2a2.9,2.9,0,0,0-.807-2.242c2.7-.3,5.532-1.323,5.532-6.013a4.673,4.673,0,0,0-1.288-3.221,4.355,4.355,0,0,0-.078-3.239s-1.014-.3-3.359,1.271a11.494,11.494,0,0,0-6.013,0C6.668,1.182,5.654,1.483,5.654,1.483a4.355,4.355,0,0,0-.077,3.239A4.673,4.673,0,0,0,4.289,7.969c0,4.656,2.835,5.678,5.532,6.013A2.9,2.9,0,0,0,9.013,16.2v3.324" transform="translate(1203.5 37.04)" fill="none" stroke="#2a1b46" stroke-linecap="round" stroke-linejoin="round" stroke-width="2"/>
  </g>
</svg>
