<svg id="heart-icon" xmlns="http://www.w3.org/2000/svg" width="21.511" height="20.53" viewBox="0 0 21.511 20.53">
  <path id="Icon_ionic-ios-heart-empty" data-name="Icon ionic-ios-heart-empty" d="M19.095,3.937h-.052A5.894,5.894,0,0,0,14.13,6.606,5.894,5.894,0,0,0,9.218,3.937H9.166a5.824,5.824,0,0,0-5.791,5.8,12.434,12.434,0,0,0,2.472,6.811,43.188,43.188,0,0,0,8.284,7.919,43.188,43.188,0,0,0,8.284-7.919,12.434,12.434,0,0,0,2.472-6.811A5.824,5.824,0,0,0,19.095,3.937ZM21.246,15.7a39.526,39.526,0,0,1-7.115,6.96A39.584,39.584,0,0,1,7.015,15.7,11.02,11.02,0,0,1,4.823,9.737,4.326,4.326,0,0,1,6.095,6.668,4.383,4.383,0,0,1,9.177,5.38h.047a4.361,4.361,0,0,1,2.125.554A4.5,4.5,0,0,1,12.92,7.4a1.459,1.459,0,0,0,2.43,0,4.55,4.55,0,0,1,1.572-1.463,4.361,4.361,0,0,1,2.125-.554h.047a4.392,4.392,0,0,1,3.082,1.288,4.313,4.313,0,0,1,1.272,3.069A11.16,11.16,0,0,1,21.246,15.7Z" transform="translate(-3.375 -3.938)"/>
</svg>
