<svg xmlns="http://www.w3.org/2000/svg" width="36" height="36" viewBox="0 0 36 36">
  <g id="instagram-icon" transform="translate(-1250 -29)">
    <circle id="Ellipse_3" data-name="Ellipse 3" cx="18" cy="18" r="18" transform="translate(1250 29)" fill="#fff" opacity="0.701"/>
    <path id="Icon_awesome-instagram" data-name="Icon awesome-instagram" d="M10.151,7.184a5.206,5.206,0,1,0,5.206,5.206A5.2,5.2,0,0,0,10.151,7.184Zm0,8.59a3.384,3.384,0,1,1,3.384-3.384A3.39,3.39,0,0,1,10.151,15.774Zm6.633-8.8A1.214,1.214,0,1,1,15.57,5.757,1.211,1.211,0,0,1,16.784,6.971ZM20.232,8.2a6.009,6.009,0,0,0-1.64-4.254,6.048,6.048,0,0,0-4.254-1.64c-1.676-.1-6.7-.1-8.377,0A6.04,6.04,0,0,0,1.706,3.945,6.028,6.028,0,0,0,.066,8.2c-.1,1.676-.1,6.7,0,8.377a6.009,6.009,0,0,0,1.64,4.254A6.056,6.056,0,0,0,5.96,22.47c1.676.1,6.7.1,8.377,0a6.009,6.009,0,0,0,4.254-1.64,6.048,6.048,0,0,0,1.64-4.254c.1-1.676.1-6.7,0-8.373ZM18.066,18.374a3.426,3.426,0,0,1-1.93,1.93c-1.337.53-4.508.408-5.985.408S5.5,20.83,4.166,20.3a3.426,3.426,0,0,1-1.93-1.93c-.53-1.337-.408-4.508-.408-5.985S1.711,7.737,2.236,6.4a3.426,3.426,0,0,1,1.93-1.93c1.337-.53,4.508-.408,5.985-.408s4.653-.118,5.985.408a3.426,3.426,0,0,1,1.93,1.93c.53,1.337.408,4.508.408,5.985S18.6,17.042,18.066,18.374Z" transform="translate(1258.005 34.762)" fill="#2a1b46"/>
  </g>
</svg>
