<svg xmlns="http://www.w3.org/2000/svg" width="205.924" height="205.925" viewBox="0 0 205.924 205.925"><defs><style>.a{fill:#fff;}.b{fill:#2a1b46;}.c{fill:#f8f0f0;}</style></defs><g transform="translate(10.551 11.542)"><path class="a" d="M708.044,1140.617a91.973,91.973,0,1,1,91.972-91.972A92.077,92.077,0,0,1,708.044,1140.617Zm0-181.38a89.408,89.408,0,1,0,89.407,89.408A89.509,89.509,0,0,0,708.044,959.237Z" transform="translate(-616.072 -956.672)"/></g><path class="b" d="M709.453,964.047a85.667,85.667,0,1,0,85.667,85.667A85.765,85.765,0,0,0,709.453,964.047Z" transform="translate(-606.64 -946.2)"/><path class="c" d="M706.694,1149.1c-3.23,0-6.062-2.155-8.8-4.238-2.191-1.668-4.261-3.243-6.277-3.56a6.069,6.069,0,0,0-.946-.07,20.964,20.964,0,0,0-6.329,1.546,22.488,22.488,0,0,1-7.066,1.669,7.764,7.764,0,0,1-2.407-.361c-3.041-.988-5.056-3.9-7.006-6.716-1.578-2.28-3.069-4.435-4.912-5.375a12.407,12.407,0,0,0-5.385-.872c-.64,0-1.288.014-1.935.027-.665.014-1.33.028-1.986.028-2.644,0-5.38-.21-7.478-1.737-2.563-1.866-3.576-5.244-4.557-8.511-.8-2.67-1.558-5.192-3.037-6.672s-4-2.237-6.673-3.038c-3.266-.981-6.643-1.994-8.509-4.557s-1.781-6.065-1.709-9.464c.056-2.674.114-5.44-.845-7.319-.941-1.843-3.1-3.334-5.375-4.912-2.816-1.949-5.729-3.965-6.717-7.007-.965-2.973.191-6.276,1.309-9.473.888-2.538,1.807-5.164,1.475-7.274-.316-2.016-1.891-4.087-3.559-6.278-2.084-2.738-4.238-5.569-4.238-8.8s2.155-6.061,4.238-8.8c1.668-2.192,3.243-4.261,3.559-6.277.333-2.111-.586-4.737-1.475-7.276-1.118-3.2-2.274-6.5-1.309-9.472.987-3.041,3.9-5.057,6.717-7.006,2.28-1.578,4.434-3.069,5.375-4.912.958-1.879.9-4.644.845-7.319-.072-3.4-.146-6.915,1.709-9.464,1.866-2.564,5.243-3.577,8.51-4.557,2.671-.8,5.193-1.559,6.672-3.038s2.236-4,3.038-6.672c.98-3.267,1.994-6.644,4.557-8.51,2.1-1.527,4.833-1.737,7.476-1.737.656,0,1.322.014,1.987.028.647.014,1.3.027,1.936.027a12.418,12.418,0,0,0,5.384-.872c1.843-.941,3.334-3.1,4.912-5.375,1.949-2.816,3.965-5.729,7.006-6.717a7.789,7.789,0,0,1,2.407-.361,22.466,22.466,0,0,1,7.066,1.67,20.99,20.99,0,0,0,6.329,1.546,6.191,6.191,0,0,0,.946-.07c2.015-.317,4.086-1.892,6.277-3.56,2.738-2.084,5.569-4.238,8.8-4.238s6.061,2.155,8.8,4.238c2.191,1.668,4.261,3.243,6.277,3.56a6.18,6.18,0,0,0,.946.07,20.988,20.988,0,0,0,6.329-1.546,22.466,22.466,0,0,1,7.066-1.67,7.789,7.789,0,0,1,2.407.361c3.041.988,5.056,3.9,7.006,6.717,1.578,2.28,3.069,4.434,4.912,5.375a12.41,12.41,0,0,0,5.385.872c.64,0,1.288-.014,1.935-.027.665-.014,1.33-.028,1.986-.028,2.644,0,5.38.21,7.478,1.737,2.563,1.866,3.577,5.243,4.557,8.51.8,2.671,1.559,5.193,3.038,6.672s4,2.237,6.672,3.038c3.267.98,6.644,1.993,8.51,4.557,1.855,2.549,1.781,6.065,1.71,9.463-.056,2.675-.115,5.44.845,7.32.94,1.843,3.1,3.334,5.375,4.912,2.816,1.949,5.728,3.965,6.716,7.006.965,2.973-.191,6.276-1.308,9.472-.889,2.539-1.808,5.165-1.477,7.275.317,2.016,1.892,4.086,3.56,6.277,2.084,2.738,4.238,5.569,4.238,8.8s-2.155,6.061-4.238,8.8c-1.668,2.191-3.243,4.262-3.56,6.277-.332,2.11.587,4.737,1.477,7.276,1.117,3.2,2.273,6.5,1.308,9.473-.988,3.04-3.9,5.057-6.716,7.005-2.28,1.578-4.435,3.069-5.375,4.913-.959,1.878-.9,4.644-.845,7.319.071,3.4.145,6.914-1.71,9.464s-5.243,3.577-8.51,4.557c-2.671.8-5.193,1.559-6.672,3.038s-2.236,4-3.037,6.672c-.981,3.267-1.994,6.645-4.558,8.511-2.1,1.527-4.833,1.737-7.477,1.737-.656,0-1.321-.015-1.986-.028-.647-.014-1.3-.027-1.935-.027a12.408,12.408,0,0,0-5.385.872c-1.843.941-3.334,3.1-4.912,5.375-1.949,2.817-3.965,5.729-7.006,6.717a7.76,7.76,0,0,1-2.407.361,22.461,22.461,0,0,1-7.066-1.669,20.963,20.963,0,0,0-6.329-1.546,6.058,6.058,0,0,0-.946.07c-2.015.317-4.086,1.892-6.277,3.56C712.755,1146.943,709.925,1149.1,706.694,1149.1Zm-16.024-10.433a8.67,8.67,0,0,1,1.345.1c2.656.416,5.084,2.265,7.433,4.052,2.4,1.827,4.881,3.715,7.246,3.715s4.846-1.889,7.245-3.715c2.349-1.787,4.777-3.635,7.432-4.052a8.668,8.668,0,0,1,1.344-.1,22.713,22.713,0,0,1,7.177,1.689,20.411,20.411,0,0,0,6.218,1.525,5.173,5.173,0,0,0,1.615-.235c2.216-.72,3.9-3.157,5.688-5.737,1.69-2.441,3.436-4.965,5.855-6.2a14.6,14.6,0,0,1,6.551-1.152c.657,0,1.324.014,1.989.028.647.013,1.294.027,1.932.027,2.21,0,4.462-.151,5.968-1.247,1.865-1.357,2.712-4.182,3.61-7.173.858-2.857,1.744-5.812,3.681-7.748s4.891-2.823,7.749-3.681c2.991-.9,5.816-1.746,7.173-3.611,1.346-1.849,1.284-4.788,1.218-7.9-.062-2.992-.128-6.086,1.125-8.54,1.235-2.419,3.759-4.166,6.2-5.855,2.58-1.786,5.017-3.472,5.737-5.689.7-2.15-.268-4.91-1.29-7.833-.994-2.839-2.02-5.774-1.589-8.522.417-2.656,2.265-5.084,4.053-7.432,1.826-2.4,3.714-4.88,3.714-7.245s-1.888-4.847-3.714-7.246c-1.788-2.349-3.635-4.777-4.053-7.432-.432-2.748.6-5.682,1.588-8.521,1.023-2.922,1.99-5.682,1.291-7.833-.72-2.216-3.157-3.9-5.737-5.688-2.441-1.689-4.965-3.436-6.2-5.855-1.253-2.454-1.188-5.547-1.125-8.54.066-3.111.128-6.05-1.218-7.9s-4.182-2.712-7.173-3.61c-2.857-.858-5.812-1.744-7.749-3.68s-2.823-4.891-3.681-7.75c-.9-2.991-1.745-5.816-3.61-7.172-1.5-1.1-3.758-1.247-5.968-1.247-.638,0-1.285.014-1.932.027-.665.014-1.331.028-1.989.028a14.6,14.6,0,0,1-6.551-1.153c-2.419-1.235-4.166-3.759-5.855-6.2-1.785-2.579-3.472-5.016-5.688-5.736a5.151,5.151,0,0,0-1.615-.236,20.418,20.418,0,0,0-6.218,1.526,22.736,22.736,0,0,1-7.177,1.689,8.653,8.653,0,0,1-1.344-.1c-2.656-.417-5.084-2.265-7.432-4.053-2.4-1.826-4.881-3.714-7.245-3.714s-4.847,1.888-7.246,3.714c-2.349,1.788-4.777,3.636-7.433,4.053a8.655,8.655,0,0,1-1.345.1,22.737,22.737,0,0,1-7.176-1.689,20.418,20.418,0,0,0-6.218-1.526,5.152,5.152,0,0,0-1.615.236c-2.216.72-3.9,3.157-5.688,5.736-1.689,2.441-3.436,4.965-5.855,6.2a14.6,14.6,0,0,1-6.55,1.153c-.657,0-1.324-.015-1.99-.028-.647-.014-1.3-.027-1.933-.027-2.21,0-4.462.151-5.967,1.246-1.865,1.357-2.712,4.183-3.61,7.173-.858,2.857-1.744,5.812-3.681,7.749s-4.891,2.823-7.749,3.681c-2.991.9-5.816,1.745-7.173,3.61s-1.284,4.789-1.218,7.9c.062,2.993.127,6.086-1.124,8.54-1.235,2.419-3.759,4.166-6.2,5.855-2.579,1.785-5.017,3.472-5.736,5.688-.7,2.151.267,4.911,1.289,7.833.994,2.839,2.02,5.774,1.589,8.521-.417,2.656-2.266,5.085-4.053,7.432-1.826,2.4-3.714,4.881-3.714,7.246s1.888,4.846,3.714,7.245c1.787,2.349,3.635,4.778,4.053,7.433.432,2.747-.6,5.682-1.589,8.521-1.023,2.922-1.988,5.682-1.289,7.833.719,2.217,3.157,3.9,5.736,5.689,2.441,1.689,4.965,3.436,6.2,5.855,1.252,2.454,1.187,5.547,1.124,8.539-.066,3.112-.127,6.051,1.218,7.9,1.357,1.865,4.182,2.713,7.173,3.61,2.858.858,5.813,1.745,7.75,3.682s2.823,4.891,3.681,7.748c.9,2.991,1.745,5.817,3.61,7.173,1.5,1.1,3.758,1.247,5.968,1.247.638,0,1.285-.014,1.932-.027.665-.014,1.331-.028,1.989-.028a14.6,14.6,0,0,1,6.551,1.152c2.419,1.235,4.166,3.759,5.855,6.2,1.785,2.579,3.472,5.016,5.688,5.736a5.174,5.174,0,0,0,1.615.235,20.426,20.426,0,0,0,6.218-1.525A22.723,22.723,0,0,1,690.671,1138.664Z" transform="translate(-603.732 -943.173)"/><g transform="translate(61.279 131.789)"><g transform="translate(32.47 5.955)"><g transform="translate(8.737 0.456)"><rect class="a" width="1.03" height="18.571" transform="matrix(0.998, -0.055, 0.055, 0.998, 0, 0.056)"/></g><path class="a" d="M727.2,1121.471a9.774,9.774,0,1,1,9.224-10.3A9.785,9.785,0,0,1,727.2,1121.471Zm-1.014-18.491a8.744,8.744,0,1,0,9.21,8.252A8.754,8.754,0,0,0,726.185,1102.98Z" transform="translate(-716.889 -1101.938)"/><g transform="translate(4.748 0.136)"><path class="a" d="M727.676,1121.409a12.312,12.312,0,0,1-1.059-19.312l.642.8a11.286,11.286,0,0,0,.968,17.638Z" transform="translate(-722.442 -1102.097)"/></g><g transform="translate(8.967 0.103)"><path class="a" d="M728.987,1121.37l-.642-.8a11.287,11.287,0,0,0-.968-17.638l.551-.87a12.312,12.312,0,0,1,1.059,19.312Z" transform="translate(-727.377 -1102.058)"/></g><g transform="translate(2.184 2.884)"><path class="a" d="M726.788,1108.781a12.449,12.449,0,0,1-7.344-1.825l.554-.868a11.8,11.8,0,0,0,13.311-.777l.651.8A12.436,12.436,0,0,1,726.788,1108.781Z" transform="translate(-719.444 -1105.311)"/></g><g transform="translate(2.804 13.18)"><path class="a" d="M734.13,1120.109a11.8,11.8,0,0,0-13.317.683l-.645-.8a12.867,12.867,0,0,1,14.522-.744Z" transform="translate(-720.169 -1117.353)"/></g><g transform="translate(0.476 9.042)"><rect class="a" width="18.571" height="1.03" transform="matrix(0.998, -0.055, 0.055, 0.998, 0, 1.017)"/></g></g><g transform="translate(29.388 2.869)"><path class="a" d="M726.83,1123.992a12.841,12.841,0,1,1,12.119-13.525A12.855,12.855,0,0,1,726.83,1123.992Zm-1.351-24.616a11.812,11.812,0,1,0,12.442,11.147A11.826,11.826,0,0,0,725.479,1099.375Z" transform="translate(-713.285 -1098.328)"/></g><g transform="translate(0 18.732)"><path class="a" d="M679.348,1122.76a.413.413,0,0,1-.1-.817l25.657-5.052a.413.413,0,1,1,.16.811l-25.656,5.052A.347.347,0,0,1,679.348,1122.76Z" transform="translate(-678.913 -1116.882)"/></g><g transform="translate(6.068 21.414)"><path class="a" d="M686.445,1124.732a.413.413,0,0,1-.1-.817l19.736-3.887a.413.413,0,0,1,.161.811l-19.737,3.887A.434.434,0,0,1,686.445,1124.732Z" transform="translate(-686.01 -1120.019)"/></g><g transform="translate(5.774 16.05)"><path class="a" d="M686.1,1118.458a.413.413,0,0,1-.1-.817l19.736-3.887a.413.413,0,1,1,.16.811l-19.736,3.887A.455.455,0,0,1,686.1,1118.458Z" transform="translate(-685.666 -1113.745)"/></g><g transform="translate(57.333)"><path class="a" d="M754.443,1099.9c-.117.021-8.464,1.406-8.474,1.342s8.317-1.551,8.435-1.572.221.015.232.078S754.56,1099.885,754.443,1099.9Z" transform="translate(-745.969 -1095.654)"/><path class="a" d="M755.145,1101.061c-.117.021-5.5.894-5.507.831s5.351-1.04,5.468-1.06.221.015.232.078S755.262,1101.041,755.145,1101.061Z" transform="translate(-746.501 -1095.822)"/><path class="a" d="M755.619,1102.328c-.117.021-3.993.635-4,.572s3.847-.781,3.963-.8.221.015.232.078S755.736,1102.308,755.619,1102.328Z" transform="translate(-746.788 -1096.006)"/><path class="a" d="M757.375,1112.519c-.117.021-3.992.635-4,.572s3.847-.781,3.964-.8.221.015.232.079S757.492,1112.5,757.375,1112.519Z" transform="translate(-747.042 -1097.483)"/><path class="a" d="M757.348,1113.841c-.117.021-5.5.894-5.507.831s5.35-1.04,5.467-1.06.221.015.232.079S757.465,1113.822,757.348,1113.841Z" transform="translate(-746.82 -1097.675)"/><path class="a" d="M757.044,1115c-.117.021-8.464,1.406-8.474,1.342s8.317-1.551,8.435-1.572.221.015.232.079S757.161,1114.979,757.044,1115Z" transform="translate(-746.346 -1097.843)"/><path class="a" d="M759.912,1114.876l.365-3.762c.052.126.189.287.321.264l.856-.146-.115-.707h0l-.2.035h0l-.635.109c-.052.009-.1-.038-.135,0l.159-1.912c.056.091.147.186.255.168l.988-.17-.121-.707h0l-.351.061h0l-.637.109c-.032.005-.073-.056-.1-.04l.169-2.27a25.135,25.135,0,0,0,3.339-.739c2.508-.828,2.282-2.14-.358-2.082a25.667,25.667,0,0,0-3.393.435l-.9-1.978c.028.007.07.076.1.071l.637-.11h0l.351-.06h0l-.122-.708-.987.171c-.108.018-.181.031-.2.137l-.79-1.749c.041.022.094.068.145.058l.6-.1.244-.043-.122-.707-.244.042-.6.1c-.131.022-.205.07-.212.207l-1.57-3.544a.714.714,0,0,0-1-.217l-.007-.027a.443.443,0,0,0-.213.463c.231,1,.516,2.091.8,3.256l-.061.01.041.236.062-.011.011,0c.062.232.123.464.222.933l-.033.006-.085.015h0l.085-.015.051.1a8.524,8.524,0,0,0,.227,1.045h0l-.21-.077.038.179.2-.062.009-.016c.051.234.1.462.184.933l-.22.034h0l.221-.04c.209,1.178.242,1.964-.048,2.154-1.669.362-3.262.736-4.349,1.028-.913-.583-2.1-1.348-2.14-1.409a.273.273,0,0,0-.488.2l.7,1.947c-.389.323-.328.657.154.828v2.17a.273.273,0,0,0,.527.026c.021-.074.96-1.288,1.634-2.154,1.117-.091,2.7-.251,4.335-.462.339.078.577.861.774,2.042l-.237.04.04.236.235-.04q.055.354.1.711H758.2l-.2.036.044.294.208.024h0c.025.239.082.655.1.894l-.047-.021-.1,0,.04.228.1-.021h.033c.062.474.024.138.1.961h-.059l.045-.012c.119,1.194.1,2.3.221,3.318.033.194.24.3.243.341v-.012C759.757,1115.467,759.88,1115.274,759.912,1114.876Z" transform="translate(-746.545 -1094.973)"/></g></g><g transform="translate(28.276 60.56)"><g transform="translate(57.899)"><path class="a" d="M711.435,1029.872l-3.245-11.43h-.1q.228,2.92.228,4.537v6.892h-3.8V1014h5.709l3.311,11.267h.087L716.873,1014h5.72v15.869h-3.94v-6.957q0-.542.016-1.2t.146-3.246h-.1l-3.2,11.407Z" transform="translate(-704.521 -1014.003)"/><path class="a" d="M735.032,1019.886l2.735-5.883h4.646l-5.221,9.671v6.2h-4.32V1023.8l-5.221-9.8h4.667Z" transform="translate(-707.875 -1014.003)"/></g><g transform="translate(0 28.252)"><path class="a" d="M649.36,1071.87h-6.6v-19.02H636.8v-5.394h18.5v5.394H649.36Z" transform="translate(-636.803 -1047.105)"/><path class="a" d="M669.121,1062.986v8.884h-6.6v-24.414h8q9.954,0,9.952,7.214,0,4.241-4.141,6.562l7.114,10.638h-7.481l-5.177-8.884Zm0-4.96h1.236q3.456,0,3.457-3.056,0-2.521-3.39-2.521h-1.3Z" transform="translate(-640.533 -1047.105)"/><path class="a" d="M704.127,1071.854l-1.2-4.576h-7.932l-1.236,4.576H686.51l7.965-24.515h8.8l8.066,24.515Zm-2.572-9.986-1.052-4.007q-.367-1.336-.893-3.457t-.693-3.039q-.15.851-.592,2.805t-1.962,7.7Z" transform="translate(-644.011 -1047.089)"/><path class="a" d="M731.9,1047.456h7.381l-8,24.414h-7.765l-7.965-24.414h7.415l3.323,12.374a37.69,37.69,0,0,1,1.135,5.744q.117-1.168.468-2.922t.618-2.755Z" transform="translate(-648.222 -1047.105)"/><path class="a" d="M760.888,1071.87H746.393v-24.414h14.495v5.293h-7.9v3.842H760.3v5.293h-7.315v4.609h7.9Z" transform="translate(-652.694 -1047.105)"/><path class="a" d="M768.346,1071.87v-24.414h6.6v19.087h9.4v5.327Z" transform="translate(-655.877 -1047.105)"/><path class="a" d="M807.4,1064.4a7.2,7.2,0,0,1-1.153,4.033,7.542,7.542,0,0,1-3.323,2.739,12.312,12.312,0,0,1-5.093.976,20.6,20.6,0,0,1-4.091-.342,15.148,15.148,0,0,1-3.44-1.194v-5.878a19.655,19.655,0,0,0,3.924,1.512,14.632,14.632,0,0,0,3.741.543,3.628,3.628,0,0,0,2.154-.51,1.565,1.565,0,0,0,.685-1.311,1.44,1.44,0,0,0-.275-.876,3.223,3.223,0,0,0-.885-.76q-.611-.385-3.248-1.57a15.6,15.6,0,0,1-3.582-2.1,6.466,6.466,0,0,1-1.77-2.338,7.763,7.763,0,0,1-.576-3.123,6.259,6.259,0,0,1,2.455-5.26,10.817,10.817,0,0,1,6.747-1.887,18.92,18.92,0,0,1,7.732,1.754l-2.02,5.093a14.641,14.641,0,0,0-5.912-1.57,3.084,3.084,0,0,0-1.87.451,1.365,1.365,0,0,0-.585,1.119,1.616,1.616,0,0,0,.744,1.286,28.3,28.3,0,0,0,4.032,2.07,11.154,11.154,0,0,1,4.384,3.048A6.619,6.619,0,0,1,807.4,1064.4Z" transform="translate(-659.06 -1047.046)"/></g><g transform="translate(12.07 7.077)"><path class="a" d="M652.2,1024.845a1.285,1.285,0,0,1-.907-.376,1.143,1.143,0,0,1-.281-.419,1.181,1.181,0,0,1-.094-.487,1.284,1.284,0,0,1,.375-.906,1.172,1.172,0,0,1,.189-.162,1.08,1.08,0,0,1,.222-.112,1.291,1.291,0,0,1,.239-.076,1.254,1.254,0,0,1,.5,0,1.309,1.309,0,0,1,.239.076,1.08,1.08,0,0,1,.222.112,1.129,1.129,0,0,1,.188.162,1.255,1.255,0,0,1,.385.906,1.189,1.189,0,0,1-.1.487,1.145,1.145,0,0,1-.282.419,1.216,1.216,0,0,1-.9.376Z" transform="translate(-650.92 -1022.28)"/><path class="a" d="M680.635,1023.563a1.281,1.281,0,0,1,1.282-1.283h0a1.281,1.281,0,0,1,1.283,1.283h0a1.281,1.281,0,0,1-1.283,1.282h0A1.281,1.281,0,0,1,680.635,1023.563Zm-4.814,0a1.281,1.281,0,0,1,1.282-1.283h0a1.281,1.281,0,0,1,1.283,1.283h0a1.281,1.281,0,0,1-1.283,1.282h0A1.281,1.281,0,0,1,675.822,1023.563Zm-4.822,0a1.286,1.286,0,0,1,1.282-1.283h0a1.281,1.281,0,0,1,1.283,1.283h0a1.281,1.281,0,0,1-1.283,1.282h0A1.287,1.287,0,0,1,671,1023.563Zm-4.815,0a1.281,1.281,0,0,1,1.283-1.283h0a1.281,1.281,0,0,1,1.282,1.283h0a1.281,1.281,0,0,1-1.282,1.282h0A1.282,1.282,0,0,1,666.185,1023.563Zm-4.814,0a1.281,1.281,0,0,1,1.283-1.283h0a1.286,1.286,0,0,1,1.282,1.283h0a1.286,1.286,0,0,1-1.282,1.282h0A1.281,1.281,0,0,1,661.371,1023.563Zm-4.821,0a1.281,1.281,0,0,1,1.282-1.283h0a1.281,1.281,0,0,1,1.283,1.283h0a1.281,1.281,0,0,1-1.283,1.282h0A1.281,1.281,0,0,1,656.55,1023.563Z" transform="translate(-651.736 -1022.28)"/><path class="a" d="M691.641,1024.845a1.281,1.281,0,0,1-.905-.376,1.392,1.392,0,0,1-.282-.419,1.322,1.322,0,0,1-.095-.487,1.283,1.283,0,0,1,.377-.906,1.561,1.561,0,0,1,.188-.162,1.576,1.576,0,0,1,.462-.188,1.249,1.249,0,0,1,.5,0,1.106,1.106,0,0,1,.24.076,1.075,1.075,0,0,1,.221.112,1.66,1.66,0,0,1,.2.162,1.28,1.28,0,0,1,.375.906,1.2,1.2,0,0,1-.1.487,1.226,1.226,0,0,1-.274.419A1.3,1.3,0,0,1,691.641,1024.845Z" transform="translate(-656.639 -1022.28)"/></g><g transform="translate(99.494 7.077)"><path class="a" d="M754.453,1024.848a1.317,1.317,0,0,1-.915-.376,1.226,1.226,0,0,1-.274-.419,1.183,1.183,0,0,1-.094-.487,1.31,1.31,0,0,1,.368-.906,1.333,1.333,0,0,1,1.82,0,1.271,1.271,0,0,1,.369.906,1.181,1.181,0,0,1-.094.487,1.227,1.227,0,0,1-.274.419,1.507,1.507,0,0,1-.418.282A1.375,1.375,0,0,1,754.453,1024.848Z" transform="translate(-753.17 -1022.283)"/><path class="a" d="M782.885,1023.563a1.281,1.281,0,0,1,1.282-1.283h0a1.281,1.281,0,0,1,1.283,1.283h0a1.281,1.281,0,0,1-1.283,1.282h0A1.281,1.281,0,0,1,782.885,1023.563Zm-4.814,0a1.281,1.281,0,0,1,1.282-1.283h0a1.281,1.281,0,0,1,1.283,1.283h0a1.281,1.281,0,0,1-1.283,1.282h0A1.281,1.281,0,0,1,778.072,1023.563Zm-4.814,0a1.273,1.273,0,0,1,1.274-1.283h0a1.281,1.281,0,0,1,1.283,1.283h0a1.281,1.281,0,0,1-1.283,1.282h0A1.274,1.274,0,0,1,773.258,1023.563Zm-4.823,0a1.281,1.281,0,0,1,1.282-1.283h0a1.281,1.281,0,0,1,1.282,1.283h0a1.281,1.281,0,0,1-1.282,1.282h0A1.282,1.282,0,0,1,768.435,1023.563Zm-4.821,0a1.286,1.286,0,0,1,1.282-1.283h0a1.287,1.287,0,0,1,1.29,1.283h0a1.288,1.288,0,0,1-1.29,1.282h0A1.286,1.286,0,0,1,763.614,1023.563Zm-4.814,0a1.281,1.281,0,0,1,1.283-1.283h0a1.281,1.281,0,0,1,1.282,1.283h0a1.281,1.281,0,0,1-1.282,1.282h0A1.281,1.281,0,0,1,758.8,1023.563Z" transform="translate(-753.986 -1022.28)"/><path class="a" d="M793.892,1024.845a1.281,1.281,0,0,1-.905-.376,1.391,1.391,0,0,1-.282-.419,1.321,1.321,0,0,1-.095-.487,1.282,1.282,0,0,1,.377-.906,1.556,1.556,0,0,1,.188-.162,1.059,1.059,0,0,1,.222-.112,1.288,1.288,0,0,1,.239-.076,1.249,1.249,0,0,1,.5,0,1.106,1.106,0,0,1,.24.076,1.075,1.075,0,0,1,.221.112,1.66,1.66,0,0,1,.2.162,1.28,1.28,0,0,1,.375.906,1.2,1.2,0,0,1-.1.487,1.226,1.226,0,0,1-.274.419A1.3,1.3,0,0,1,793.892,1024.845Z" transform="translate(-758.889 -1022.28)"/></g></g></svg>